<svg width="277" height="277" viewBox="0 0 277 277" fill="none" xmlns="http://www.w3.org/2000/svg">
<path d="M138.5 277C214.991 277 277 214.991 277 138.5C277 62.0086 214.991 0 138.5 0C62.0086 0 0 62.0086 0 138.5C0 214.991 62.0086 277 138.5 277Z" fill="#353743"/>
<path d="M221.6 277H55.4004V97.8728C63.234 97.864 70.7441 94.7483 76.2833 89.2091C81.8225 83.67 84.9383 76.1597 84.9471 68.3262H192.054C192.045 72.2067 192.807 76.0504 194.294 79.6348C195.781 83.2191 197.964 86.4731 200.716 89.2082C203.451 91.9618 206.706 94.1455 210.29 95.6328C213.875 97.1201 217.719 97.8814 221.6 97.8728V277Z" fill="#181A23"/>
<path d="M138.5 188.361C162.977 188.361 182.82 168.518 182.82 144.041C182.82 119.563 162.977 99.7207 138.5 99.7207C114.022 99.7207 94.1797 119.563 94.1797 144.041C94.1797 168.518 114.022 188.361 138.5 188.361Z" fill="#FF7067"/>
<path d="M154.169 164.933L138.5 149.264L122.831 164.933L117.607 159.71L133.277 144.041L117.607 128.371L122.831 123.148L138.5 138.817L154.169 123.148L159.393 128.371L143.723 144.041L159.393 159.71L154.169 164.933Z" fill="white"/>
<path d="M162.506 199.439H114.493C111.433 199.439 108.953 201.92 108.953 204.979C108.953 208.039 111.433 210.519 114.493 210.519H162.506C165.566 210.519 168.046 208.039 168.046 204.979C168.046 201.92 165.566 199.439 162.506 199.439Z" fill="#DFEAFB"/>
<path d="M179.127 221.6H97.874C94.8143 221.6 92.334 224.08 92.334 227.14C92.334 230.199 94.8143 232.68 97.874 232.68H179.127C182.187 232.68 184.667 230.199 184.667 227.14C184.667 224.08 182.187 221.6 179.127 221.6Z" fill="#DFEAFB"/>
</svg>
