<svg width="268" height="73" viewBox="0 0 268 73" fill="none" xmlns="http://www.w3.org/2000/svg">
<path d="M88.6514 57.1718H90.5238V58.4952C90.5238 59.0824 90.7502 59.3716 91.2364 59.3716C91.5001 59.3716 91.6795 59.2853 91.7776 59.1177C91.8717 58.95 91.9217 58.5667 91.9217 57.956V49.5215H93.9283V57.3884C93.9283 58.1678 93.9146 58.6962 93.8852 58.9814C93.8499 59.2628 93.7989 59.4892 93.7215 59.6568C93.3137 60.5489 92.5069 60.9803 91.2227 60.9803C89.515 60.9803 88.6504 60.0784 88.6504 58.3119V57.1718H88.6514Z" fill="#FFCD67"/>
<path d="M96.7266 60.7087V49.5195H102.376V51.3811H98.7607V53.9662H102.126V55.7386H98.7607V58.8187H102.46V60.7087H96.7266Z" fill="#FFCD67"/>
<path d="M106.294 60.7087L104.162 49.5195H106.281L107.624 57.9972L109.06 49.5195H110.759L112.338 58.1668L113.507 49.5195H115.607L113.606 60.7087H111.178L109.908 53.6398L108.736 60.7087H106.294Z" fill="#FFCD67"/>
<path d="M117.674 60.7087V49.5195H123.323V51.3811H119.708V53.9662H123.071V55.7386H119.708V58.8187H123.409V60.7087H117.674Z" fill="#FFCD67"/>
<path d="M125.779 60.7087V49.5195H127.829V58.805H131.525V60.7087H125.779Z" fill="#FFCD67"/>
<path d="M133.785 60.7087V49.5195H135.834V58.805H139.532V60.7087H133.785Z" fill="#FFCD67"/>
<path d="M141.789 60.7087V49.5195H147.439V51.3811H143.825V53.9662H147.189V55.7386H143.825V58.8187H147.524V60.7087H141.789Z" fill="#FFCD67"/>
<path d="M149.895 60.7087V49.5215H153.565C154.672 49.5215 155.47 49.746 155.964 50.2028C156.45 50.6616 156.692 51.4095 156.692 52.4477C156.692 53.9015 156.163 54.7592 155.142 54.9034C156.113 55.1651 156.621 56.0023 156.663 57.408V57.5561L156.719 59.0392C156.755 59.8804 156.913 60.3391 157.277 60.7087H154.851C154.792 60.5195 154.749 60.2931 154.721 60.0392C154.693 59.7872 154.672 59.4304 154.662 58.9657L154.634 57.7962V57.4972C154.634 56.8512 154.498 56.4022 154.228 56.1601C153.957 55.9219 153.407 55.7974 152.571 55.7974H151.872V60.7087H149.895ZM151.872 54.2495H153.049C153.642 54.2495 154.058 54.127 154.292 53.8848C154.521 53.6447 154.635 53.2114 154.635 52.5849C154.635 52.0252 154.507 51.6419 154.257 51.4174C154.007 51.1909 153.544 51.0831 152.881 51.0831H151.872V54.2495Z" fill="#FFCD67"/>
<path d="M161.274 60.7087V55.965L158.389 49.5195H160.66L162.324 53.726L163.966 49.5195H166.171L163.336 55.965V60.7087H161.274Z" fill="#FFCD67"/>
<path d="M174.198 60.7087V51.3654H171.842V49.5195H178.604V51.3654H176.246V60.7087H174.198Z" fill="#FFCD67"/>
<path d="M180.542 60.7087V49.5215H184.212C185.319 49.5215 186.119 49.746 186.613 50.2028C187.097 50.6616 187.339 51.4095 187.339 52.4477C187.339 53.9015 186.812 54.7592 185.79 54.9034C186.76 55.1651 187.269 56.0023 187.312 57.408V57.5561L187.369 59.0392C187.404 59.8804 187.564 60.3391 187.926 60.7087H185.497C185.439 60.5195 185.397 60.2931 185.367 60.0392C185.34 59.7872 185.318 59.4304 185.312 58.9657L185.281 57.7962V57.4972C185.281 56.8512 185.146 56.4022 184.875 56.1601C184.605 55.9219 184.053 55.7974 183.219 55.7974H182.518V60.7087H180.541H180.542ZM182.519 54.2495H183.699C184.292 54.2495 184.704 54.127 184.942 53.8848C185.172 53.6447 185.283 53.2114 185.283 52.5849C185.283 52.0252 185.156 51.6419 184.906 51.4174C184.656 51.1909 184.192 51.0831 183.528 51.0831H182.519V54.2495Z" fill="#FFCD67"/>
<path d="M189.049 60.7087L191.528 49.5215H194.277L196.778 60.7087H194.57L194.027 57.8982H191.669L191.14 60.7087H189.049ZM191.993 56.2189H193.736L192.855 51.5243L191.993 56.2189Z" fill="#FFCD67"/>
<path d="M198.712 60.7107V49.5215H202.005C202.676 49.5215 203.212 49.5803 203.611 49.695C204.006 49.8136 204.332 49.9999 204.59 50.2626C204.976 50.6488 205.246 51.1292 205.411 51.7095C205.569 52.2967 205.648 53.2045 205.648 54.4328C205.648 56.0238 205.591 57.1424 205.482 57.7962C205.376 58.456 205.191 59.0167 204.926 59.4745C204.676 59.9333 204.325 60.2499 203.874 60.4332C203.425 60.6146 202.641 60.7107 201.533 60.7107H198.711H198.712ZM200.721 59.0608H201.626C202.091 59.0608 202.413 59.0236 202.597 58.9589C202.782 58.8942 202.934 58.7775 203.042 58.6099C203.233 58.3207 203.368 57.9207 203.448 57.411C203.526 56.911 203.568 56.0974 203.568 54.9867C203.568 53.876 203.521 53.1123 203.426 52.6173C203.332 52.1232 203.17 51.7527 202.942 51.4968C202.817 51.3743 202.668 51.2802 202.485 51.2272C202.29 51.1782 201.997 51.1566 201.597 51.1566H200.721V59.0608Z" fill="#FFCD67"/>
<path d="M210.229 49.5195H208.18V60.7087H210.229V49.5195Z" fill="#FFCD67"/>
<path d="M212.977 60.7087V49.5195H215.081L217.945 57.3433L217.89 49.5195H219.823V60.7087H217.73L214.847 52.8692L214.904 60.7087H212.977Z" fill="#FFCD67"/>
<path d="M227.988 60.7038L227.836 59.4667C227.63 60.0059 227.344 60.3901 226.98 60.6225C226.617 60.8548 226.109 60.9734 225.475 60.9734C224.323 60.9734 223.509 60.5284 223.045 59.6422C222.574 58.756 222.338 57.1296 222.338 54.7661C222.338 53.6633 222.395 52.7771 222.509 52.1076C222.615 51.4478 222.795 50.9322 223.031 50.5695C223.601 49.6735 224.524 49.2598 225.922 49.2598C228.287 49.2598 229.372 50.3646 229.372 52.7555V53.0369H227.457V52.9202C227.457 51.5851 226.965 50.8959 225.991 50.8959C225.4 50.8959 224.994 51.1263 224.773 51.5909C224.55 52.0556 224.443 53.2908 224.443 55.2896C224.443 56.8669 224.55 57.9286 224.757 58.456C224.966 58.9873 225.343 59.2579 225.895 59.2579C226.448 59.2579 226.821 59.0687 227.057 58.6903C227.287 58.3119 227.4 57.6718 227.4 56.7718V56.3856H225.979V54.5975H229.372V60.7019H227.987L227.988 60.7038Z" fill="#FFCD67"/>
<path d="M236.561 60.7087V49.5195H238.608V58.805H242.309V60.7087H236.561Z" fill="#FFCD67"/>
<path d="M246.376 58.6992H244.533V60.7059H246.376V58.6992Z" fill="#FFCD67"/>
<path d="M249.092 60.7087V49.5195H251.14V58.805H254.838V60.7087H249.092Z" fill="#FFCD67"/>
<path d="M258.909 58.6992H257.066V60.7059H258.909V58.6992Z" fill="#FFCD67"/>
<path d="M265.989 56.7141H267.984C267.984 56.8082 267.998 57.0405 267.998 57.1513C267.998 59.7373 266.938 60.9735 264.732 60.9735C263.685 60.9735 262.956 60.7039 262.415 60.1206C262.041 59.7363 261.777 59.1991 261.627 58.5237C261.477 57.8483 261.4 56.665 261.4 54.9789C261.4 52.6752 261.578 51.3753 261.955 50.7058C262.548 49.6833 263.369 49.2461 264.731 49.2461C265.848 49.2461 266.662 49.5431 267.168 50.1323C267.675 50.7215 267.923 51.6723 267.931 52.9801H265.946V52.7124C265.946 51.4998 265.566 50.9107 264.775 50.9107C264.282 50.9107 263.953 51.1136 263.775 51.5273C263.595 51.9429 263.505 53.0752 263.505 54.9436C263.505 56.9542 263.589 58.1825 263.769 58.6178C263.94 59.053 264.269 59.2717 264.761 59.2717C265.216 59.2717 265.538 59.0982 265.718 58.756C265.897 58.4149 265.987 57.7914 265.987 56.868V56.7141H265.989Z" fill="#FFCD67"/>
<path d="M194.725 11.0973C199.004 11.3546 203.25 10.6347 207.413 11.5699C212.211 12.6494 214.289 17.6292 211.718 21.7383C211.226 22.5227 210.459 23.132 209.774 23.8712C210.969 24.5785 212.027 25.5633 212.612 27.0123C213.983 30.4098 212.698 34.1979 209.533 36.0291C207.964 36.9367 206.252 37.4463 204.485 37.5091C201.259 37.6223 198.027 37.541 194.725 37.541V11.0964L194.725 11.0973ZM199.292 15.6614V32.795C201.304 32.795 203.245 32.8386 205.178 32.7682C205.801 32.7464 206.434 32.4698 207.025 32.2209C208.133 31.7516 208.747 30.8708 208.714 29.6639C208.677 28.4194 208.156 27.3861 206.918 26.9436C206.263 26.7097 205.537 26.6083 204.835 26.5647C203.867 26.501 202.891 26.548 201.918 26.548V21.9688C203.187 21.9688 204.379 22.0274 205.564 21.9553C207.246 21.8523 208.172 20.9044 208.346 19.2551C208.519 17.6066 207.812 16.3713 206.132 16.1291C203.897 15.8089 201.618 15.8056 199.293 15.6631" fill="#FFCD67"/>
<path d="M136.39 30.2235V37.5265H131.893V11.2194C132.088 11.1925 132.28 11.1423 132.473 11.1423C135.44 11.1389 138.406 11.0987 141.373 11.154C145.262 11.2277 148.676 13.6473 149.887 17.0934C151.306 21.1304 150.324 25.3929 147.362 27.9507C145.614 29.4558 143.528 30.1255 141.257 30.2134C139.693 30.2721 138.124 30.2235 136.391 30.2235M136.442 25.7691C138.409 25.661 140.299 25.7205 142.128 25.4138C144.392 25.0333 145.889 23.0638 145.943 20.8446C145.998 18.5148 144.64 16.5445 142.268 16.1053C140.391 15.7567 138.431 15.8514 136.442 15.745V25.7683V25.7691Z" fill="#FFCD67"/>
<path d="M266.257 11.1385V15.7681C265.811 15.7932 265.414 15.8318 265.017 15.8334C262.527 15.8385 260.041 15.8368 257.552 15.8368C256.531 15.8368 255.571 16.017 254.892 16.8684C254.222 17.7132 254.079 18.6644 254.522 19.6517C255.021 20.7579 255.965 21.2692 257.122 21.3488C258.073 21.4141 259.029 21.3672 259.984 21.3722C264.296 21.3974 267.665 24.4295 267.972 28.5579C268.307 33.0868 265.522 36.8473 261.139 37.356C258.344 37.6811 255.495 37.5412 252.672 37.5965C251.728 37.6149 250.782 37.5998 249.777 37.5998V32.9687C250.229 32.9435 250.63 32.9083 251.03 32.905C253.927 32.8832 256.824 32.91 259.721 32.8245C260.471 32.801 261.253 32.5178 261.948 32.2002C263.123 31.6629 263.805 30.6732 263.812 29.375C263.819 28.0835 263.189 27.0133 262.001 26.5247C260.988 26.109 259.865 25.9004 258.772 25.752C257.597 25.5936 256.376 25.7436 255.214 25.535C251.556 24.8737 249.276 22.0352 249.305 18.3225C249.327 14.9182 251.872 11.9607 255.359 11.3699C256.359 11.1997 257.39 11.1612 258.408 11.1494C260.993 11.1193 263.575 11.1394 266.258 11.1394" fill="#FFCD67"/>
<path d="M228.817 37.5602H215.816V11.2246H228.606C228.606 12.6083 228.623 13.9617 228.6 15.3152C228.588 15.943 228.069 15.829 227.682 15.8307C225.636 15.8407 223.593 15.8357 221.549 15.8357H220.369V21.9519H227.389V26.5127H220.376V32.8997C221.281 32.8997 222.158 32.8997 223.032 32.9014C224.669 32.9014 226.305 32.8997 227.94 32.903C228.352 32.9047 228.812 32.8595 228.816 33.4738C228.822 34.7954 228.817 36.1204 228.817 37.5594" fill="#FFCD67"/>
<path d="M229.736 11.1836H247.638V15.8123H240.971V37.541H236.413V15.8575H229.736V11.1836Z" fill="#FFCD67"/>
<path d="M118.381 11.1816H122.834V32.8793H129.976V37.5382H118.381V11.1816Z" fill="#FFCD67"/>
<path d="M107.632 10.7207H104.058L88.6504 37.529H93.3578L105.424 16.8219L109.238 27.9129C107.737 26.5628 106.133 25.3442 104.439 24.2681L102.351 27.8442C106.54 30.5311 110.114 34.2077 112.69 38.6931L112.793 38.6595C114.136 38.0452 115.363 37.2608 116.451 36.3448L107.633 10.7215L107.632 10.7207Z" fill="#FFCD67"/>
<path d="M183.783 10.7207H180.208L164.799 37.529H169.508L181.572 16.8219L185.389 27.9129C183.887 26.5628 182.281 25.3442 180.587 24.2681L178.5 27.8442C182.688 30.5311 186.264 34.2077 188.84 38.6931L188.943 38.6595C190.286 38.0452 191.512 37.2608 192.599 36.3448L183.783 10.7215V10.7207Z" fill="#FFCD67"/>
<path d="M164.726 11.1836H169.262V37.5259H164.794V26.6033H156.896V37.5292H152.361V11.2171H156.829V21.9352H164.726V11.1836Z" fill="#FFCD67"/>
<path d="M26.6542 4.90313L28.9993 8.10135L29.6831 9.03176L31.346 11.2932L33.0078 13.5473H37.6985L36.042 11.2932L34.3791 9.03176L33.6964 8.095L31.3502 4.90366L31.0655 4.51573L28.9999 1.71338L28.3547 0.830078C27.0247 1.11904 25.7233 1.48369 24.4531 1.91556L26.3648 4.51626L26.6548 4.90419L26.6542 4.90313Z" fill="#FFCD67"/>
<path d="M40.4519 4.51603L38.3874 1.71263L37.15 0.0285791C36.78 0.0169358 36.4133 0 36.0423 0C34.8674 0 33.7078 0.0619214 32.5625 0.170946L35.756 4.51603H40.4519Z" fill="#FFCD67"/>
<path d="M41.0175 4.51626L40.7317 4.90419L38.3866 8.09553L37.6986 9.03229L36.041 11.2937L37.6986 13.5478H39.0752L40.737 11.2937L42.3946 9.03229L43.0826 8.09553L45.4277 4.90419L45.7135 4.51626L47.6304 1.91556C46.3586 1.48263 45.0577 1.11904 43.7277 0.830078L43.0826 1.70598L41.018 4.51573L41.0175 4.51626Z" fill="#FFCD67"/>
<path d="M45.8305 67.1832L43.4843 63.985L42.8005 63.0546L41.1387 60.7942L39.4758 58.5391H34.7852L36.4427 60.7942L38.1046 63.0546L38.7884 63.9924L41.1334 67.1827L41.4192 67.5706L43.4838 70.374L44.0728 71.1779C45.3944 70.8768 46.6894 70.5047 47.9511 70.0628L46.1194 67.5706L45.8305 67.1827V67.1832Z" fill="#FFCD67"/>
<path d="M32.0312 67.5708L34.0969 70.3742L35.3427 72.0678C35.5756 72.0731 35.8063 72.0858 36.0413 72.0858C37.3438 72.0858 38.6277 72.0133 39.8942 71.8794L36.7272 67.5703H32.0312V67.5708Z" fill="#FFCD67"/>
<path d="M31.4662 67.5706L31.751 67.1827L34.0971 63.9924L34.7851 63.0546L36.4427 60.7942L34.7851 58.5391H33.4086L31.7467 60.7942L30.0892 63.0546L29.4001 63.9924L27.055 67.1827L26.7703 67.5706L24.7734 70.2803C26.0537 70.7 27.3598 71.0583 28.6988 71.3362L29.4006 70.3803L31.4662 67.5706Z" fill="#FFCD67"/>
<path d="M4.90002 45.6321L8.09823 43.286L9.02865 42.6033L11.2901 40.9404L13.5441 39.2786V34.5879L11.2901 36.2444L9.02865 37.9073L8.09188 38.59L4.90055 40.9362L4.51261 41.2209L1.71027 43.2855L0.867188 43.9031C1.16145 45.2299 1.52927 46.5271 1.96642 47.793L4.51261 45.9216L4.90055 45.6316L4.90002 45.6321Z" fill="#FFCD67"/>
<path d="M4.51603 31.8345L1.71263 33.9002L0.0232868 35.1418C0.0158774 35.4429 0 35.7414 0 36.0441C0 37.2825 0.0640384 38.5072 0.185235 39.7139L4.51656 36.53V31.834L4.51603 31.8345Z" fill="#FFCD67"/>
<path d="M4.51831 31.2673L4.90625 31.552L8.09758 33.8982L9.03434 34.5862L11.2958 36.2438L13.5498 34.5862V33.2096L11.2958 31.5478L9.03434 29.8902L8.09758 29.2011L4.90625 26.856L4.51831 26.5713L1.86257 24.6152C1.43706 25.8902 1.07558 27.1942 0.792969 28.5285L1.70856 29.2017L4.51831 31.2673Z" fill="#FFCD67"/>
<path d="M67.1812 26.4569L63.983 28.802L63.0537 29.4857L60.7922 31.1486L58.5371 32.8104V37.5011L60.7922 35.8446L63.0537 34.1817L63.9904 33.499L67.1807 31.1529L67.5686 30.8681L70.372 28.8025L71.2151 28.1849C70.9209 26.8591 70.5515 25.5619 70.1159 24.2949L67.5686 26.1674L67.1807 26.4574L67.1812 26.4569Z" fill="#FFCD67"/>
<path d="M67.5689 35.5589V40.2549L70.3723 38.1893L72.0627 36.9477C72.069 36.6465 72.0849 36.347 72.0849 36.0448C72.0849 34.8063 72.0209 33.5817 71.8986 32.375L67.5684 35.5589H67.5689Z" fill="#FFCD67"/>
<path d="M67.5706 40.8183L67.1827 40.5335L63.9924 38.1874L63.0556 37.4994L60.7942 35.8418L58.5391 37.4994V38.8759L60.7942 40.5378L63.0556 42.1954L63.9924 42.8844L67.1827 45.2295L67.5706 45.5142L70.2253 47.4703C70.6518 46.1954 71.0133 44.8913 71.297 43.5571L70.3803 42.8839L67.5706 40.8183Z" fill="#FFCD67"/>
<path d="M51.2811 7.24367L50.6793 11.1638L50.5052 12.3043L50.0807 15.0791L49.6621 17.8476L52.9789 21.1644L53.4012 18.3991L53.8257 15.6242L54.004 14.4795L54.6015 10.5636L54.674 10.0873L55.1969 6.64563L55.3552 5.61625C54.22 4.89436 53.045 4.22911 51.8288 3.63477L51.3504 6.76365L51.2811 7.24315V7.24367Z" fill="#FFCD67"/>
<path d="M61.3118 16.7268L61.8325 13.2841L62.1496 11.21C61.9432 10.9909 61.7405 10.7686 61.5277 10.5574L61.5266 10.5553C60.6624 9.69104 59.75 8.87336 58.8016 8.09961L57.9902 13.4058L61.3118 16.7273V16.7268Z" fill="#FFCD67"/>
<path d="M61.7107 17.1256L61.2343 17.1981L57.319 17.7967L56.1705 17.9719L53.4 18.3995L52.9766 21.1648L53.9504 22.1386L56.7199 21.72L59.4905 21.2924L60.64 21.1172L64.5553 20.5197L65.0306 20.4472L68.2913 19.9529C67.6832 18.7377 67.0089 17.5617 66.2733 16.4297L65.1571 16.5996L61.7101 17.1256H61.7107Z" fill="#FFCD67"/>
<path d="M20.8026 64.8431L21.4054 60.9225L21.5796 59.7819L22.003 57.0082L22.4216 54.2386L19.1048 50.9219L18.6825 53.6882L18.258 56.462L18.0797 57.6078L17.4811 61.5221L17.4086 61.9984L16.8868 65.4411L16.7285 66.4695C17.8637 67.1924 19.0387 67.8582 20.2549 68.452L20.7333 65.322L20.8026 64.8436V64.8431Z" fill="#FFCD67"/>
<path d="M10.7705 55.3594L10.2487 58.8021L9.93164 60.8762C10.9822 61.9807 12.0984 63.0228 13.2807 63.9871L14.091 58.6809L10.7705 55.3594Z" fill="#FFCD67"/>
<path d="M10.3741 54.9583L10.8504 54.8858L14.7647 54.2883L15.9142 54.1131L18.6848 53.6855L19.1077 50.9191L18.1339 49.9453L15.3643 50.3639L12.5938 50.7916L11.4442 50.9668L7.52996 51.5653L7.05364 51.6378L3.79297 52.1321C4.40001 53.3473 5.07533 54.5222 5.81097 55.6553L6.92715 55.4854L10.3741 54.9583Z" fill="#FFCD67"/>
<path d="M7.249 20.8026L11.1691 21.4054L12.3096 21.5796L15.0844 22.003L17.854 22.4216L21.1707 19.1048L18.4044 18.6825L15.6296 18.258L14.4848 18.0797L10.5705 17.4811L10.0942 17.4086L6.65149 16.8868L5.62211 16.7285C4.90022 17.8637 4.23444 19.0387 3.64062 20.2549L6.76951 20.7333L7.249 20.8026Z" fill="#FFCD67"/>
<path d="M16.7254 10.7724L13.2826 10.2506L11.2085 9.93359C10.103 10.9841 9.06194 12.1003 8.09766 13.2826L13.4049 14.0929L16.7254 10.7724Z" fill="#FFCD67"/>
<path d="M17.1237 10.3716L17.1973 10.8479L17.7948 14.7622L17.9699 15.9117L18.3976 18.6823L21.1639 19.1057L22.1367 18.1319L21.7181 15.3624L21.2904 12.5918L21.1152 11.4423L20.5177 7.528L20.4452 7.05168L19.9509 3.79102C18.7358 4.39806 17.5598 5.07337 16.4277 5.80902L16.5976 6.92519L17.1237 10.3722V10.3716Z" fill="#FFCD67"/>
<path d="M64.8397 51.283L60.9186 50.6802L59.778 50.5061L57.0043 50.0827L54.2347 49.6641L50.918 52.9808L53.6843 53.4032L56.4581 53.8276L57.6028 54.006L61.5182 54.6045L61.9945 54.6771L65.4372 55.1989L66.4655 55.3571C67.1885 54.2219 67.8543 53.047 68.4481 51.8308L65.3181 51.3523L64.8397 51.283Z" fill="#FFCD67"/>
<path d="M55.358 61.3137L58.8007 61.8345L60.8748 62.1515C61.0939 61.9451 61.3162 61.7424 61.5284 61.5296L61.5295 61.5286C62.3937 60.6643 63.2124 59.7519 63.9851 58.8035L58.679 57.9922L55.3574 61.3137H55.358Z" fill="#FFCD67"/>
<path d="M54.9563 61.7126L54.8838 61.2363L54.2853 57.322L54.1101 56.1725L53.6835 53.4019L50.9172 52.9785L49.9434 53.9523L50.363 56.7219L50.7896 59.4924L50.9648 60.642L51.5634 64.5573L51.6359 65.0326L52.1302 68.2932C53.3453 67.6851 54.5213 67.0109 55.6523 66.2752L55.4824 65.159L54.9563 61.7121V61.7126Z" fill="#FFCD67"/>
<path d="M40.7961 21.7154H37.2047L31.2348 32.1341L29.1311 35.7827L24.9765 42.9984L23.3073 45.8848L22.4219 47.4297L25.9599 49.4996L26.161 49.1593L27.6418 46.612L27.6767 46.549L32.967 37.4646L35.0644 33.8721L38.5749 27.8482L42.4119 38.9952C40.902 37.6387 39.2883 36.413 37.5842 35.3328L35.4868 38.9264C39.6969 41.6266 43.2915 45.3244 45.8801 49.8309L45.9843 49.797C47.3334 49.1804 48.5665 48.3913 49.661 47.471L40.7961 21.7148V21.7154Z" fill="#FFCD67"/>
<path d="M13.5472 36.0418H13.4102C13.4102 48.5404 23.543 58.6744 36.0438 58.6744C48.5445 58.6744 58.6753 48.5404 58.6753 36.0418C58.6753 23.5432 48.5424 13.4082 36.0438 13.4082C23.5452 13.4082 13.4102 23.5411 13.4102 36.0418H13.6843C13.6843 29.8671 16.186 24.2778 20.2332 20.2317C24.2798 16.1851 29.8686 13.6839 36.0432 13.6839C42.2179 13.6839 47.8062 16.1857 51.8512 20.2317C55.8989 24.2783 58.4001 29.8671 58.4001 36.0418C58.4001 42.2165 55.8983 47.8048 51.8512 51.8508C47.8057 55.8974 42.2169 58.3997 36.0432 58.3997C29.8696 58.3997 24.2792 55.8969 20.2332 51.8508C16.1855 47.8042 13.6843 42.2154 13.6843 36.0418H13.5472Z" fill="#FFCD67"/>
</svg>
